<svg xmlns="http://www.w3.org/2000/svg" viewBox="0 0 569 411" height="411" xmlns:xlink="http://www.w3.org/1999/xlink" width="569">
    <style type="text/css"><![CDATA[
.st1 {fill:#191919;font-family:微软雅黑;font-size:7.5pt}
.st2 {fill:#454545;font-family:微软雅黑;font-size:9.75pt}
]]></style>
    <defs/>
    <g transform="translate(-93,-281)">
        <g id="shape1" transform="translate(160.5,461)">
            <path fill="#ffffff" stroke="#323232" d="M100,60L100,0L0,0L0,60L100,60z" fill-rule="evenodd"/>
            <text class="st1">
                <tspan x="14" y="33">minmax: [1, 3]</tspan>
            </text>
        </g>
        <g id="shape2" transform="translate(259,461)">
            <path fill="#ffffff" stroke="#323232" d="M100,60L100,0L0,0L0,60L100,60z" fill-rule="evenodd"/>
            <text class="st1">
                <tspan x="14" y="33">minmax: [3, 6]</tspan>
            </text>
        </g>
        <g id="shape3" transform="translate(359,461)">
            <path fill="#ffffff" stroke="#323232" d="M100,60L100,0L0,0L0,60L100,60z" fill-rule="evenodd"/>
            <text class="st1">
                <tspan x="14" y="33">minmax: [6, 9]</tspan>
            </text>
        </g>
        <path fill="#ffffff" stroke="#323232" d="M100,60L100,0L0,0L0,60L100,60z" id="shape4" transform="translate(460,461)" fill-rule="evenodd"/>
        <path fill="#ffffff" stroke="#323232" d="M100,60L100,0L0,0L0,60L100,60z" id="shape5" transform="translate(561,461)" fill-rule="evenodd"/>
        <path stroke="#323232" fill="none" d="M0,0L9,0C11.5,-0.4,14,.5,15.8,2.2C17.5,4,18.4,6.5,18,9L18,41C17.6,43.4,18.5,45.9,20.2,47.7C22,49.5,24.5,50.3,27,50C24.5,49.6,22,50.4,20.2,52.2C18.5,54,17.6,56.5,18,59L18,90.9C18.4,93.4,17.5,95.9,15.8,97.7C14,99.4,11.5,100.3,9,99.9L0,99.9" id="shape6" transform="matrix(0,1,1,0,259.1,529)"/>
        <path stroke="#323232" fill="none" d="M0,0L9,0C11.5,-0.4,14,.5,15.8,2.2C17.5,4,18.4,6.5,18,9L18,41C17.6,43.4,18.5,45.9,20.2,47.7C22,49.5,24.5,50.3,27,50C24.5,49.6,22,50.4,20.2,52.2C18.5,54,17.6,56.5,18,59L18,90.9C18.4,93.4,17.5,95.9,15.8,97.7C14,99.4,11.5,100.3,9,99.9L0,99.9" id="shape7" transform="matrix(0,1,1,0,359.1,529)"/>
        <path stroke="#323232" fill="none" d="M0,0L9,0C11.5,-0.4,14,.5,15.8,2.2C17.5,4,18.4,6.5,18,9L18,41C17.6,43.4,18.5,45.9,20.2,47.7C22,49.5,24.5,50.3,27,50C24.5,49.6,22,50.4,20.2,52.2C18.5,54,17.6,56.5,18,59L18,90.9C18.4,93.4,17.5,95.9,15.8,97.7C14,99.4,11.5,100.3,9,99.9L0,99.9" id="shape8" transform="matrix(0,1,1,0,160.5,529)"/>
        <g id="shape9" transform="translate(183.59,548)">
            <text class="st2">
                <tspan x="8.4" y="23">8192</tspan>
            </text>
        </g>
        <g id="shape10" transform="translate(282.09,548)">
            <text class="st2">
                <tspan x="8.4" y="23">8192</tspan>
            </text>
        </g>
        <g id="shape11" transform="translate(382.13,548)">
            <text class="st2">
                <tspan x="8.4" y="23">8192</tspan>
            </text>
        </g>
        <g id="shape12" transform="translate(204,576)">
            <path stroke="#323232" fill="none" d="M0,0L-49.9,49.9"/>
            <path stroke-width="1" fill="#323232" stroke="#323232" stroke-linecap="round" d="M-53,53L-47.2,51.4C-48.2,51.2,-49.1,50.7,-49.9,49.9C-50.7,49.1,-51.2,48.2,-51.4,47.2L-53,53"/>
        </g>
        <g id="shape13" transform="translate(94,595)">
            <text class="st2">
                <tspan x="8" y="52">index_granularity = 8192</tspan>
            </text>
        </g>
        <g id="shape14" transform="translate(183.59,425)">
            <text class="st2">
                <tspan x="8.4" y="24.5">编号0</tspan>
            </text>
        </g>
        <g id="shape15" transform="translate(282.13,425)">
            <text class="st2">
                <tspan x="8.4" y="24.5">编号1</tspan>
            </text>
        </g>
        <g id="shape16" transform="translate(382.13,425)">
            <text class="st2">
                <tspan x="8.4" y="24.5">编号2</tspan>
            </text>
        </g>
        <path stroke="#323232" fill="none" d="M0,0L9,0C11.5,-0.4,14,.5,15.8,2.2C17.5,4,18.4,6.5,18,9L18,139.7C17.6,142.2,18.5,144.7,20.2,146.5C22,148.2,24.5,149.1,27,148.7C24.5,148.4,22,149.2,20.2,151C18.5,152.7,17.6,155.2,18,157.7L18,288.4C18.4,290.9,17.5,293.4,15.8,295.2C14,296.9,11.5,297.8,9,297.4L0,297.4" id="shape17" transform="matrix(0,-1,-1,0,458,435)"/>
        <g id="shape18" transform="translate(293,377.85)">
            <text class="st2">
                <tspan x="8" y="23">3</tspan>
            </text>
        </g>
        <g id="shape19" transform="translate(397,372.85)">
            <text class="st2">
                <tspan x="8" y="28">minmax: [1, 9]</tspan>
            </text>
        </g>
        <g id="shape20" transform="translate(312,387)">
            <path stroke="#323232" fill="none" d="M0,0L43.9,-43.9"/>
            <path stroke-width="1" fill="#323232" stroke="#323232" stroke-linecap="round" d="M47,-47L41.2,-45.4C42.2,-45.2,43.1,-44.7,43.9,-43.9C44.7,-43.1,45.2,-42.2,45.4,-41.2L47,-47"/>
        </g>
        <g id="shape21" transform="translate(359,282)">
            <text class="st2">
                <tspan x="8" y="52">granularity = 3</tspan>
            </text>
        </g>
    </g>
</svg>
