<svg width="848" height="350" viewBox="0 0 848 350" xmlns="http://www.w3.org/2000/svg" xmlns:xlink="http://www.w3.org/1999/xlink">
    <style type="text/css"><![CDATA[
.st2 {fill:#191919;font-family:微软雅黑;font-size:6.75pt}
.st1 {fill:#191919;font-family:微软雅黑;font-size:7.5pt}
]]></style>
    <defs/>
    <g transform="translate(-803.5,-38)">
        <path id="shape1" stroke="#323232" fill="#ffffff" d="M756,82.8L756,0L0,0L0,82.8L756,82.8z" transform="translate(873,167.6)" fill-rule="evenodd"/>
        <path id="shape2" stroke="#323232" d="M0,0L0,82.8" fill="none" stroke-dasharray="11,5" transform="translate(947.84,167.6)"/>
        <path id="shape3" stroke="#323232" d="M0,0L0,82.8" fill="none" stroke-dasharray="11,5" transform="translate(1022.69,167.6)"/>
        <path id="shape4" stroke="#323232" d="M0,0L0,82.8" fill="none" stroke-dasharray="11,5" transform="translate(1098.29,167.6)"/>
        <path id="shape5" stroke="#323232" d="M0,0L0,82.8" fill="none" stroke-dasharray="11,5" transform="translate(1175.4,167.6)"/>
        <path id="shape6" stroke="#323232" d="M0,0L0,82.8" fill="none" stroke-dasharray="11,5" transform="translate(1251,167.6)"/>
        <path id="shape7" stroke="#323232" d="M0,0L-0,82.8" fill="none" stroke-dasharray="11,5" transform="translate(1325.84,167.6)"/>
        <path id="shape8" stroke="#323232" d="M0,0L0,82.8" fill="none" stroke-dasharray="11,5" transform="translate(1403.71,167.6)"/>
        <path id="shape9" stroke="#323232" d="M0,0L0,82.8" fill="none" stroke-dasharray="11,5" transform="translate(1478.56,167.6)"/>
        <path id="shape10" stroke="#323232" d="M0,0L-0,82.8" fill="none" stroke-dasharray="11,5" transform="translate(1552.64,167.6)"/>
        <path id="shape11" stroke="#323232" fill="#ffffff" d="M756,71.8L756,0L0,0L0,71.8L756,71.8z" transform="translate(873,315.2)" fill-rule="evenodd"/>
        <path id="shape12" stroke="#323232" d="M0,0L0,35.8" fill="none" transform="translate(947.84,315.2)"/>
        <path id="shape13" stroke="#323232" d="M0,0L0,40.8" fill="none" transform="translate(1022.69,315.2)"/>
        <path id="shape14" stroke="#323232" d="M0,0L0,35.8" fill="none" transform="translate(1098.29,315.2)"/>
        <path id="shape15" stroke="#323232" d="M0,0L0,35.8" fill="none" transform="translate(1175.4,315.2)"/>
        <path id="shape16" stroke="#323232" d="M0,0L0,35.8" fill="none" transform="translate(1251,315.2)"/>
        <path id="shape17" stroke="#323232" d="M0,0L0,35.8" fill="none" transform="translate(1325.84,315.2)"/>
        <path id="shape18" stroke="#323232" d="M0,0L0,30.8" fill="none" transform="translate(1403.71,315.2)"/>
        <path id="shape19" stroke="#323232" d="M0,0L0,35.8" fill="none" transform="translate(1478.56,315.2)"/>
        <path id="shape20" stroke="#323232" d="M0,0L0,35.8" fill="none" transform="translate(1554.16,315.2)"/>
        <g id="shape21" transform="translate(873,39)">
            <path stroke="#323232" fill="#ffffff" d="M69.8,38L69.8,0L0,0L0,38L69.8,38z" fill-rule="evenodd"/>
            <text class="st1">
                <tspan x="19.4" y="22">Mark0</tspan>
            </text>
        </g>
        <g id="shape22" transform="translate(949,39)">
            <path stroke="#323232" fill="#ffffff" d="M69.8,38L69.8,0L0,0L0,38L69.8,38z" fill-rule="evenodd"/>
            <text class="st1">
                <tspan x="19.4" y="22">Mark1</tspan>
            </text>
        </g>
        <g id="shape23" transform="translate(1025,39)">
            <path stroke="#323232" fill="#ffffff" d="M69.8,38L69.8,0L0,0L0,38L69.8,38z" fill-rule="evenodd"/>
            <text class="st1">
                <tspan x="19.4" y="22">Mark2</tspan>
            </text>
        </g>
        <g id="shape24" transform="translate(1101,39)">
            <path stroke="#323232" fill="#ffffff" d="M69.8,38L69.8,0L0,0L0,38L69.8,38z" fill-rule="evenodd"/>
            <text class="st1">
                <tspan x="19.4" y="22">Mark3</tspan>
            </text>
        </g>
        <g id="shape25" transform="translate(1177,39)">
            <path stroke="#323232" fill="#ffffff" d="M69.8,38L69.8,0L0,0L0,38L69.8,38z" fill-rule="evenodd"/>
            <text class="st1">
                <tspan x="19.4" y="22">Mark4</tspan>
            </text>
        </g>
        <g id="shape26" transform="translate(1253,39)">
            <path stroke="#323232" fill="#ffffff" d="M69.8,38L69.8,0L0,0L0,38L69.8,38z" fill-rule="evenodd"/>
            <text class="st1">
                <tspan x="19.4" y="22">Mark5</tspan>
            </text>
        </g>
        <g id="shape27" transform="translate(1329,39)">
            <path stroke="#323232" fill="#ffffff" d="M69.8,38L69.8,0L0,0L0,38L69.8,38z" fill-rule="evenodd"/>
            <text class="st1">
                <tspan x="19.4" y="22">Mark6</tspan>
            </text>
        </g>
        <g id="shape28" transform="translate(1405,39)">
            <path stroke="#323232" fill="#ffffff" d="M69.8,38L69.8,0L0,0L0,38L69.8,38z" fill-rule="evenodd"/>
            <text class="st1">
                <tspan x="19.4" y="22">Mark7</tspan>
            </text>
        </g>
        <g id="shape29" transform="translate(1481,39)">
            <path stroke="#323232" fill="#ffffff" d="M69.8,38L69.8,0L0,0L0,38L69.8,38z" fill-rule="evenodd"/>
            <text class="st1">
                <tspan x="19.4" y="22">Mark8</tspan>
            </text>
        </g>
        <g id="shape30" transform="translate(1559.24,39)">
            <path stroke="#323232" fill="#ffffff" d="M69.8,38L69.8,0L0,0L0,38L69.8,38z" fill-rule="evenodd"/>
            <text class="st1">
                <tspan x="18.4" y="22">Mark n</tspan>
            </text>
        </g>
        <path id="shape31" stroke="#323232" fill="#ffffff" d="M0,10.4L32.4,10.4L32.4,0L48,17.3L32.4,34.6L32.4,24.2L0,24.2L0,10.4z" transform="matrix(0,-1,1,0,893.7,132)" fill-rule="evenodd"/>
        <path id="shape32" stroke="#323232" fill="#ffffff" d="M0,10.4L32.4,10.4L32.4,0L48,17.3L32.4,34.6L32.4,24.2L0,24.2L0,10.4z" transform="matrix(0,-1,1,0,968.7,132)" fill-rule="evenodd"/>
        <path id="shape33" stroke="#323232" fill="#ffffff" d="M0,10.4L32.4,10.4L32.4,0L48,17.3L32.4,34.6L32.4,24.2L0,24.2L0,10.4z" transform="matrix(0,-1,1,0,1044.7,133)" fill-rule="evenodd"/>
        <path id="shape34" stroke="#323232" fill="#ffffff" d="M0,10.4L32.4,10.4L32.4,0L48,17.3L32.4,34.6L32.4,24.2L0,24.2L0,10.4z" transform="matrix(0,-1,1,0,1120.7,132)" fill-rule="evenodd"/>
        <path id="shape35" stroke="#323232" fill="#ffffff" d="M0,10.4L32.4,10.4L32.4,0L48,17.3L32.4,34.6L32.4,24.2L0,24.2L0,10.4z" transform="matrix(0,-1,1,0,1195.7,133)" fill-rule="evenodd"/>
        <path id="shape36" stroke="#323232" fill="#ffffff" d="M0,10.4L32.4,10.4L32.4,0L48,17.3L32.4,34.6L32.4,24.2L0,24.2L0,10.4z" transform="matrix(0,-1,1,0,1271.7,133)" fill-rule="evenodd"/>
        <path id="shape37" stroke="#323232" fill="#ffffff" d="M0,10.4L32.4,10.4L32.4,0L48,17.3L32.4,34.6L32.4,24.2L0,24.2L0,10.4z" transform="matrix(0,-1,1,0,1346.7,133)" fill-rule="evenodd"/>
        <path id="shape38" stroke="#323232" fill="#ffffff" d="M0,10.4L32.4,10.4L32.4,0L48,17.3L32.4,34.6L32.4,24.2L0,24.2L0,10.4z" transform="matrix(0,-1,1,0,1496.7,132)" fill-rule="evenodd"/>
        <path id="shape39" stroke="#323232" fill="#ffffff" d="M0,10.4L32.4,10.4L32.4,0L48,17.3L32.4,34.6L32.4,24.2L0,24.2L0,10.4z" transform="matrix(0,-1,1,0,1421.7,132)" fill-rule="evenodd"/>
        <path id="shape40" stroke="#323232" fill="#ffffff" d="M0,10.4L32.4,10.4L32.4,0L48,17.3L32.4,34.6L32.4,24.2L0,24.2L0,10.4z" transform="matrix(0,-1,1,0,1572.7,132)" fill-rule="evenodd"/>
        <g id="shape41" transform="translate(873,181)">
            <text class="st2">
                <tspan x="14" y="22.5">MarkRange</tspan>
                <tspan x="7" y="33.5">(start:0,end:1)</tspan>
            </text>
        </g>
        <g id="shape42" transform="translate(948,181)">
            <text class="st2">
                <tspan x="14" y="22.5">MarkRange</tspan>
                <tspan x="7" y="33.5">(start:1,end:2)</tspan>
            </text>
        </g>
        <g id="shape43" transform="translate(1020,183.5)">
            <text class="st2">
                <tspan x="14" y="22.5">MarkRange</tspan>
                <tspan x="7" y="33.5">(start:2,end:3)</tspan>
            </text>
        </g>
        <g id="shape44" transform="translate(1100,183.5)">
            <text class="st2">
                <tspan x="14" y="22.5">MarkRange</tspan>
                <tspan x="7" y="33.5">(start:3,end:4)</tspan>
            </text>
        </g>
        <g id="shape45" transform="translate(1175,183.5)">
            <text class="st2">
                <tspan x="14" y="22.5">MarkRange</tspan>
                <tspan x="7" y="33.5">(start:4,end:5)</tspan>
            </text>
        </g>
        <g id="shape46" transform="translate(1251,183.5)">
            <text class="st2">
                <tspan x="14" y="22.5">MarkRange</tspan>
                <tspan x="7" y="33.5">(start:5,end:6)</tspan>
            </text>
        </g>
        <g id="shape47" transform="translate(1326,183.5)">
            <text class="st2">
                <tspan x="14" y="22.5">MarkRange</tspan>
                <tspan x="7" y="33.5">(start:6,end:7)</tspan>
            </text>
        </g>
        <g id="shape48" transform="translate(1402,183.5)">
            <text class="st2">
                <tspan x="14" y="22.5">MarkRange</tspan>
                <tspan x="7" y="33.5">(start:7,end:8)</tspan>
            </text>
        </g>
        <g id="shape49" transform="translate(1473,183.5)">
            <text class="st2">
                <tspan x="18" y="22.5">MarkRange</tspan>
                <tspan x="11" y="33.5">(start:8,end:9)</tspan>
            </text>
        </g>
        <g id="shape50" transform="translate(1549,183.5)">
            <text class="st2">
                <tspan x="18" y="22.5">MarkRange</tspan>
                <tspan x="5" y="33.5">(start:n,end:n+1)</tspan>
            </text>
        </g>
        <path id="shape51" stroke="#323232" d="M0,0L5,0C6.4,-0.2,7.8,.3,8.8,1.2C9.7,2.2,10.2,3.6,10,5L10,32C9.8,33.4,10.3,34.7,11.2,35.7C12.2,36.7,13.6,37.2,15,37C13.6,36.8,12.2,37.2,11.2,38.2C10.3,39.2,9.8,40.6,10,42L10,69C10.2,70.3,9.7,71.7,8.8,72.7C7.8,73.7,6.4,74.2,5,74L0,74" fill="none" transform="matrix(0,1,1,0,873,257)"/>
        <g id="shape52" transform="translate(891.02,265)">
            <text class="st1">
                <tspan x="6" y="17">8192</tspan>
            </text>
        </g>
        <path id="shape53" stroke="#323232" d="M0,0L5,0C6.4,-0.2,7.8,.3,8.8,1.2C9.7,2.2,10.2,3.6,10,5L10,32C9.8,33.4,10.3,34.7,11.2,35.7C12.2,36.7,13.6,37.2,15,37C13.6,36.8,12.2,37.2,11.2,38.2C10.3,39.2,9.8,40.6,10,42L10,69C10.2,70.3,9.7,71.7,8.8,72.7C7.8,73.7,6.4,74.2,5,74L0,74" fill="none" transform="matrix(0,1,1,0,948,257)"/>
        <g id="shape54" transform="translate(966.02,265)">
            <text class="st1">
                <tspan x="6" y="17">8192</tspan>
            </text>
        </g>
        <path id="shape55" stroke="#323232" d="M0,0L5,0C6.4,-0.2,7.8,.3,8.8,1.2C9.7,2.2,10.2,3.6,10,5L10,32C9.8,33.4,10.3,34.7,11.2,35.7C12.2,36.7,13.6,37.2,15,37C13.6,36.8,12.2,37.2,11.2,38.2C10.3,39.2,9.8,40.6,10,42L10,69C10.2,70.3,9.7,71.7,8.8,72.7C7.8,73.7,6.4,74.2,5,74L0,74" fill="none" transform="matrix(0,1,1,0,1022.9,257)"/>
        <g id="shape56" transform="translate(1040.88,265)">
            <text class="st1">
                <tspan x="6" y="17">8192</tspan>
            </text>
        </g>
        <path id="shape57" stroke="#323232" d="M0,0L5,0C6.4,-0.2,7.8,.3,8.8,1.2C9.7,2.2,10.2,3.6,10,5L10,32C9.8,33.4,10.3,34.7,11.2,35.7C12.2,36.7,13.6,37.2,15,37C13.6,36.8,12.2,37.2,11.2,38.2C10.3,39.2,9.8,40.6,10,42L10,69C10.2,70.3,9.7,71.7,8.8,72.7C7.8,73.7,6.4,74.2,5,74L0,74" fill="none" transform="matrix(0,1,1,0,1098.9,257)"/>
        <g id="shape58" transform="translate(1116.88,265)">
            <text class="st1">
                <tspan x="6" y="17">8192</tspan>
            </text>
        </g>
        <path id="shape59" stroke="#323232" d="M0,0L5,0C6.4,-0.2,7.8,.3,8.8,1.2C9.7,2.2,10.2,3.6,10,5L10,32C9.8,33.4,10.3,34.7,11.2,35.7C12.2,36.7,13.6,37.2,15,37C13.6,36.8,12.2,37.2,11.2,38.2C10.3,39.2,9.8,40.6,10,42L10,69C10.2,70.3,9.7,71.7,8.8,72.7C7.8,73.7,6.4,74.2,5,74L0,74" fill="none" transform="matrix(0,1,1,0,1174.9,257)"/>
        <g id="shape60" transform="translate(1192.88,265)">
            <text class="st1">
                <tspan x="6" y="17">8192</tspan>
            </text>
        </g>
        <path id="shape61" stroke="#323232" d="M0,0L5,0C6.4,-0.2,7.8,.3,8.8,1.2C9.7,2.2,10.2,3.6,10,5L10,32C9.8,33.4,10.3,34.7,11.2,35.7C12.2,36.7,13.6,37.2,15,37C13.6,36.8,12.2,37.2,11.2,38.2C10.3,39.2,9.8,40.6,10,42L10,69C10.2,70.3,9.7,71.7,8.8,72.7C7.8,73.7,6.4,74.2,5,74L0,74" fill="none" transform="matrix(0,1,1,0,1250.9,257)"/>
        <g id="shape62" transform="translate(1268.88,265)">
            <text class="st1">
                <tspan x="6" y="17">8192</tspan>
            </text>
        </g>
        <path id="shape63" stroke="#323232" d="M0,0L5,0C6.4,-0.2,7.8,.3,8.8,1.2C9.7,2.2,10.2,3.6,10,5L10,32C9.8,33.4,10.3,34.7,11.2,35.7C12.2,36.7,13.6,37.2,15,37C13.6,36.8,12.2,37.2,11.2,38.2C10.3,39.2,9.8,40.6,10,42L10,69C10.2,70.3,9.7,71.7,8.8,72.7C7.8,73.7,6.4,74.2,5,74L0,74" fill="none" transform="matrix(0,1,1,0,1328,257)"/>
        <g id="shape64" transform="translate(1345.98,265)">
            <text class="st1">
                <tspan x="6" y="17">8192</tspan>
            </text>
        </g>
        <path id="shape65" stroke="#323232" d="M0,0L5,0C6.4,-0.2,7.8,.3,8.8,1.2C9.7,2.2,10.2,3.6,10,5L10,32C9.8,33.4,10.3,34.7,11.2,35.7C12.2,36.7,13.6,37.2,15,37C13.6,36.8,12.2,37.2,11.2,38.2C10.3,39.2,9.8,40.6,10,42L10,69C10.2,70.3,9.7,71.7,8.8,72.7C7.8,73.7,6.4,74.2,5,74L0,74" fill="none" transform="matrix(0,1,1,0,1405,257)"/>
        <g id="shape66" transform="translate(1423.02,265)">
            <text class="st1">
                <tspan x="6" y="17">8192</tspan>
            </text>
        </g>
        <path id="shape67" stroke="#323232" d="M0,0L5,0C6.4,-0.2,7.8,.3,8.8,1.2C9.7,2.2,10.2,3.6,10,5L10,32C9.8,33.4,10.3,34.7,11.2,35.7C12.2,36.7,13.6,37.2,15,37C13.6,36.8,12.2,37.2,11.2,38.2C10.3,39.2,9.8,40.6,10,42L10,69C10.2,70.3,9.7,71.7,8.8,72.7C7.8,73.7,6.4,74.2,5,74L0,74" fill="none" transform="matrix(0,1,1,0,1481,257)"/>
        <g id="shape68" transform="translate(1499.02,265)">
            <text class="st1">
                <tspan x="6" y="17">8192</tspan>
            </text>
        </g>
        <path id="shape69" stroke="#323232" d="M0,0L5,0C6.4,-0.2,7.8,.3,8.8,1.2C9.7,2.2,10.2,3.6,10,5L10,32C9.8,33.4,10.3,34.7,11.2,35.7C12.2,36.7,13.6,37.2,15,37C13.6,36.8,12.2,37.2,11.2,38.2C10.3,39.2,9.8,40.6,10,42L10,69C10.2,70.3,9.7,71.7,8.8,72.7C7.8,73.7,6.4,74.2,5,74L0,74" fill="none" transform="matrix(0,1,1,0,1555,257)"/>
        <g id="shape70" transform="translate(1572.98,265)">
            <text class="st1">
                <tspan x="6" y="17">8192</tspan>
            </text>
        </g>
        <g id="shape71" transform="translate(864.5,289)">
            <text class="st1">
                <tspan x="4.5" y="17">0</tspan>
            </text>
        </g>
        <g id="shape72" transform="translate(928,271)">
            <text class="st1">
                <tspan x="6" y="35">8192</tspan>
            </text>
        </g>
        <g id="shape73" transform="translate(1000,271)">
            <text class="st1">
                <tspan x="5" y="35">16384</tspan>
            </text>
        </g>
        <g id="shape74" transform="translate(1076,271)">
            <text class="st1">
                <tspan x="5" y="35">24576</tspan>
            </text>
        </g>
        <g id="shape75" transform="translate(1155,271)">
            <text class="st1">
                <tspan x="5" y="35">32768</tspan>
            </text>
        </g>
        <g id="shape76" transform="translate(1230,271)">
            <text class="st1">
                <tspan x="5" y="35">40960</tspan>
            </text>
        </g>
        <g id="shape77" transform="translate(1306,271)">
            <text class="st1">
                <tspan x="5" y="35">49152</tspan>
            </text>
        </g>
        <g id="shape78" transform="translate(1382,271)">
            <text class="st1">
                <tspan x="5" y="35">57334</tspan>
            </text>
        </g>
        <g id="shape79" transform="translate(1457,271)">
            <text class="st1">
                <tspan x="5" y="35">65536</tspan>
            </text>
        </g>
        <g id="shape80" transform="translate(1529,271)">
            <text class="st1">
                <tspan x="5" y="35">73728</tspan>
            </text>
        </g>
        <g id="shape81" transform="translate(1608,271)">
            <text class="st1">
                <tspan x="16" y="35">...</tspan>
            </text>
        </g>
        <g id="shape82" transform="translate(888,130)">
            <text class="st1">
                <tspan x="10" y="26">编号0</tspan>
            </text>
        </g>
        <g id="shape83" transform="translate(960.88,130)">
            <text class="st1">
                <tspan x="10" y="26">编号1</tspan>
            </text>
        </g>
        <g id="shape84" transform="translate(1039,130)">
            <text class="st1">
                <tspan x="10" y="26">编号2</tspan>
            </text>
        </g>
        <g id="shape85" transform="translate(1115,130)">
            <text class="st1">
                <tspan x="10" y="26">编号3</tspan>
            </text>
        </g>
        <g id="shape86" transform="translate(1188.88,130)">
            <text class="st1">
                <tspan x="10" y="26">编号4</tspan>
            </text>
        </g>
        <g id="shape87" transform="translate(1266,130)">
            <text class="st1">
                <tspan x="10" y="26">编号5</tspan>
            </text>
        </g>
        <g id="shape88" transform="translate(1340.88,130)">
            <text class="st1">
                <tspan x="10" y="26">编号6</tspan>
            </text>
        </g>
        <g id="shape89" transform="translate(1417,130)">
            <text class="st1">
                <tspan x="10" y="26">编号7</tspan>
            </text>
        </g>
        <g id="shape90" transform="translate(1492,130)">
            <text class="st1">
                <tspan x="10" y="26">编号8</tspan>
            </text>
        </g>
        <g id="shape91" transform="translate(1571.12,130)">
            <text class="st1">
                <tspan x="10" y="26">编号n</tspan>
            </text>
        </g>
        <g id="shape92" transform="translate(804.5,44)">
            <text class="st1">
                <tspan x="18" y="20.5">数据标记</tspan>
            </text>
        </g>
        <g id="shape93" transform="translate(804.5,192.5)">
            <text class="st1">
                <tspan x="18" y="20.5">索引区间</tspan>
            </text>
        </g>
    </g>
</svg>
