<svg xmlns="http://www.w3.org/2000/svg" viewBox="0 0 698 248" height="248" xmlns:xlink="http://www.w3.org/1999/xlink" width="698">
    <style type="text/css"><![CDATA[
.st1 {fill:#191919;font-family:微软雅黑;font-size:7.5pt}
]]></style>
    <defs/>
    <g transform="translate(-131,-1245.74)">
        <path fill="#ffffff" stroke="#323232" d="M0,0L610.7,0L610.7,180.3L0,180.3L0,0z" id="shape1" transform="translate(217,1246.74)" fill-rule="evenodd" stroke-dasharray="11,5"/>
        <g id="shape2" transform="translate(236.33,1274.95)">
            <path fill="#ffffff" stroke="#323232" d="M0,0L93.3,0L93.3,60.1L0,60.1L0,0z" fill-rule="evenodd"/>
            <text class="st1">
                <tspan x="23.2" y="27.1">数据间隔0</tspan>
                <tspan x="18.2" y="41.1">[0, 8192) 行</tspan>
            </text>
        </g>
        <g id="shape3" transform="translate(353.98,1274.6)">
            <path fill="#ffffff" stroke="#323232" d="M0,0L93.5,0L93.5,60.2L0,60.2L0,0z" fill-rule="evenodd"/>
            <text class="st1">
                <tspan x="23.3" y="27.1">数据间隔1</tspan>
                <tspan x="7.3" y="41.1">[8192, 16384)行</tspan>
            </text>
        </g>
        <g id="shape4" transform="translate(473.53,1274.71)">
            <path fill="#ffffff" stroke="#323232" d="M0,0L93.7,0L93.7,60.4L0,60.4L0,0z" fill-rule="evenodd"/>
            <text class="st1">
                <tspan x="23.4" y="20.2">数据间隔2</tspan>
                <tspan x="9.4" y="34.2">[16384, 24567)</tspan>
                <tspan x="42.4" y="48.2">行</tspan>
            </text>
        </g>
        <g id="shape5" transform="translate(590.79,1273.65)">
            <path fill="#ffffff" stroke="#323232" d="M0,0L94.2,0L94.2,60.7L0,60.7L0,0z" fill-rule="evenodd"/>
            <text class="st1">
                <tspan x="24.1" y="27.3">数据间隔3</tspan>
                <tspan x="4.1" y="41.3">[24567, 32768)行</tspan>
            </text>
        </g>
        <path stroke="#323232" fill="none" d="M0,0L3.5,0C4.5,-0.1,5.5,.2,6.2,.9C6.9,1.6,7.2,2.6,7.1,3.5L7.1,41.6C6.9,42.6,7.3,43.6,8,44.3C8.7,45,9.6,45.3,10.6,45.2C9.6,45,8.7,45.4,8,46C7.3,46.7,6.9,47.7,7.1,48.7L7.1,86.8C7.2,87.8,6.9,88.8,6.2,89.4C5.5,90.1,4.5,90.5,3.5,90.3L0,90.3" id="shape6" transform="matrix(0,-1,-1,0,328.2,1273.4)"/>
        <path stroke="#323232" fill="none" d="M0,0L3.5,0C4.5,-0.1,5.5,.2,6.2,.9C6.9,1.6,7.2,2.6,7.1,3.5L7.1,41.7C6.9,42.7,7.3,43.7,8,44.4C8.7,45.1,9.7,45.4,10.6,45.3C9.7,45.1,8.7,45.4,8,46.1C7.3,46.8,6.9,47.8,7.1,48.8L7.1,87C7.2,87.9,6.9,88.9,6.2,89.6C5.5,90.3,4.5,90.7,3.5,90.5L0,90.5" id="shape7" transform="matrix(0,-1,-1,0,446.2,1273)"/>
        <path stroke="#323232" fill="none" d="M0,0L3.6,0C4.5,-0.1,5.5,.2,6.2,.9C6.9,1.6,7.2,2.6,7.1,3.6L7.1,41.8C7,42.8,7.3,43.8,8,44.5C8.7,45.2,9.7,45.5,10.7,45.3C9.7,45.2,8.7,45.5,8,46.2C7.3,46.9,7,47.9,7.1,48.9L7.1,87.1C7.2,88.1,6.9,89.1,6.2,89.8C5.5,90.5,4.5,90.8,3.6,90.7L0,90.7" id="shape8" transform="matrix(0,-1,-1,0,565.7,1273.1)"/>
        <path stroke="#323232" fill="none" d="M0,0L3.6,0C4.6,-0.1,5.5,.2,6.2,.9C6.9,1.6,7.3,2.6,7.1,3.6L7.1,42C7,43,7.3,44,8,44.7C8.7,45.4,9.7,45.7,10.7,45.6C9.7,45.4,8.7,45.8,8,46.5C7.3,47.2,7,48.2,7.1,49.2L7.1,87.6C7.3,88.6,6.9,89.6,6.2,90.3C5.5,91,4.6,91.3,3.6,91.2L0,91.2" id="shape9" transform="matrix(0,-1,-1,0,682,1272.1)"/>
        <g id="shape10" transform="translate(263.2,1248.29)">
            <text class="st1">
                <tspan x="7.3" y="12.9">8192</tspan>
            </text>
        </g>
        <g id="shape11" transform="translate(379.46,1247.89)">
            <text class="st1">
                <tspan x="7.3" y="12.9">8192</tspan>
            </text>
        </g>
        <g id="shape12" transform="translate(500.51,1247.94)">
            <text class="st1">
                <tspan x="7.4" y="12.9">8192</tspan>
            </text>
        </g>
        <g id="shape13" transform="translate(616.42,1246.74)">
            <text class="st1">
                <tspan x="7.5" y="13">8192</tspan>
            </text>
        </g>
        <path fill="#ffffff" stroke="#323232" d="M0,0L198,0L198,52L0,52L0,0z" id="shape14" transform="translate(246,1356)" fill-rule="evenodd"/>
        <g id="shape15" transform="translate(475.01,1356)">
            <path fill="#ffffff" stroke="#323232" d="M0,0L94,0L94,52L0,52L0,0z" fill-rule="evenodd"/>
            <text class="st1">
                <tspan x="29" y="30">压缩块1</tspan>
            </text>
        </g>
        <g id="shape16" transform="translate(590.97,1356)">
            <path fill="#ffffff" stroke="#323232" d="M0,0L94,0L94,52L0,52L0,0z" fill-rule="evenodd"/>
            <text class="st1">
                <tspan x="29" y="30">压缩块2</tspan>
            </text>
        </g>
        <g id="shape17" transform="translate(710.58,1356)">
            <path fill="#ffffff" stroke="#323232" d="M0,0L94,0L94,52L0,52L0,0z" fill-rule="evenodd"/>
            <text class="st1">
                <tspan x="29" y="30">压缩块3</tspan>
            </text>
        </g>
        <path stroke="#323232" fill="none" d="M0,0L0,180" id="shape18" transform="translate(458.3,1247)" stroke-dasharray="11,5"/>
        <path stroke="#323232" fill="none" d="M0,0L0,180.3" id="shape19" transform="translate(580.34,1246.74)" stroke-dasharray="11,5"/>
        <path stroke="#323232" fill="none" d="M0,0L0,180.3" id="shape20" transform="translate(340.96,1246.74)" stroke-dasharray="11,5"/>
        <g id="shape21" transform="translate(255,1361)">
            <text class="st1">
                <tspan x="15" y="22.5">压缩块0</tspan>
            </text>
        </g>
        <g id="shape22" transform="translate(246,1436)">
            <text class="st1">
                <tspan x="4" y="15">单个间隔数据 &lt;= 64KB,则累积到64KB生</tspan>
                <tspan x="4" y="29">成下个压缩块</tspan>
            </text>
        </g>
        <g id="shape23" transform="translate(456.06,1422)">
            <text class="st1">
                <tspan x="27" y="26.5">单个间隔数据</tspan>
                <tspan x="8" y="38.5">64KB&lt;=size&lt;=1MB</tspan>
                <tspan x="12" y="52.5">直接生成下个压缩块</tspan>
            </text>
        </g>
        <g id="shape24" transform="translate(601.81,1422)">
            <text class="st1">
                <tspan x="45" y="28">单个间隔数据 > 1MB,</tspan>
                <tspan x="50" y="42">直接生成多个压缩块</tspan>
            </text>
        </g>
        <g id="shape25" transform="translate(132,1287.49)">
            <text class="st1">
                <tspan x="18" y="20.5">待写入数据</tspan>
            </text>
        </g>
        <g id="shape26" transform="translate(132,1356.5)">
            <text class="st1">
                <tspan x="15" y="17">column.bin</tspan>
                <tspan x="13" y="31">数据压缩文件</tspan>
            </text>
        </g>
    </g>
</svg>
